<svg height="512pt" viewBox="0 -19 512.00228 512" width="512pt" xmlns="http://www.w3.org/2000/svg"><path d="m322.859375 111.996094-189.542969 189.542968c-28.742187 28.742188-64.59375 49.824219-103.683594 60.964844-17.953124 5.117188-29.859374 21.097656-29.62890575 39.765625.23046875 18.664063 12.52734375 34.347657 30.60156275 39.019531l97.070312 25.09375c18.144531 4.691407 36.78125 7.035157 55.410157 7.035157 19.613281 0 39.222656-2.597657 58.253906-7.785157 37.113281-10.121093 71.109375-29.851562 98.3125-57.050781l139.894531-139.894531zm0 0" fill="#ff2331"/><path d="m125.601562 465.84375 2.074219.539062c18.148438 4.6875 36.78125 7.035157 55.410157 7.035157 19.613281 0 39.222656-2.597657 58.253906-7.789063 37.117187-10.121094 71.109375-29.847656 98.3125-57.050781l139.898437-139.894531-78.394531-78.394532zm0 0" fill="#bf0000"/><path d="m468.644531 122.765625-21.675781-21.675781 24.585938-24.585938c12.992187-12.988281 12.992187-34.125 0-47.117187l-7.710938-7.710938 21.675781-21.675781 7.710938 7.710938c24.941406 24.945312 24.941406 65.527343 0 90.46875zm0 0" fill="#9adb05"/><path d="m479.550781 111.996094c-20.929687-20.925782-48.75-32.453125-78.347656-32.453125-29.59375 0-57.417969 11.527343-78.394531 32.503906l-6.875 6.875 24.820312 68.988281 48.117188 14.660156 14.664062 48.121094 69.136719 24.871094 6.875-6.878906c20.925781-20.925782 32.453125-48.75 32.453125-78.34375s-11.523438-57.417969-32.449219-78.34375zm0 0" fill="#b0f809"/><path d="m479.5 111.945312-90.625 90.625 14.660156 48.121094 69.140625 24.871094 6.875-6.878906c20.925781-20.925782 32.453125-48.75 32.453125-78.34375s-11.527344-57.417969-32.453125-78.34375c-.019531-.015625-.035156-.03125-.050781-.050782zm0 0" fill="#00db80"/></svg>