<svg height="512pt" viewBox="0 0 512.00025 512" width="512pt" xmlns="http://www.w3.org/2000/svg"><path d="m496.996094 0h-240.996094c-68.382812 0-132.667969 26.628906-181.019531 74.980469-48.351563 48.351562-74.980469 112.636719-74.980469 181.019531.00390625 68.378906 26.628906 132.664062 74.980469 181.015625 48.351562 48.351563 112.640625 74.980469 181.019531 74.980469s132.664062-26.628906 181.015625-74.976563c48.355469-48.355469 74.980469-112.640625 74.980469-181.019531v-241c0-8.28125-6.714844-15-15-15zm0 0" fill="#e7f0ef"/><path d="m507.605469 4.394531-432.625 432.621094c48.351562 48.351563 112.640625 74.980469 181.019531 74.980469s132.664062-26.628906 181.015625-74.976563c48.355469-48.355469 74.980469-112.640625 74.980469-181.019531v-241c0-4.140625-1.679688-7.890625-4.390625-10.605469zm0 0" fill="#c5e1e6"/><path d="m499.9375.292969c-2.003906-.402344-3.996094-.3789065-5.882812 0h-.003907c-.042969.007812-.082031.015625-.121093.023437l-200.707032 40.140625c-56.515625 11.304688-113.851562 43.738281-161.4375 91.328125-47.589844 47.589844-80.023437 104.925782-91.320312 161.441406-8.617188 43.070313-4.238282 82.554688 12.664062 114.1875 2.558594 4.789063 7.347656 7.621094 12.398438 7.90625.019531.25.039062.503907.0625.75.8125 7.707032 7.320312 13.433594 14.902344 13.433594.519531 0 1.050781-.027344 1.582031-.082031.203125-.023437.398437-.066406.597656-.09375-.027344.195313-.070313.390625-.089844.589844-.867187 8.238281 5.109375 15.621093 13.347657 16.488281.25.027344.511718.035156.765624.058594.277344 5.058594 3.097657 9.855468 7.894532 12.414062 21.085937 11.261719 45.65625 16.960938 72.445312 16.960938 13.410156 0 27.378906-1.429688 41.742188-4.300782 56.515625-11.304687 113.851562-43.734374 161.4375-91.324218 47.589844-47.589844 80.023437-104.925782 91.328125-161.441406l40.164062-200.832032c1.625-8.121094-3.644531-16.023437-11.769531-17.648437zm-427.113281 377.351562c-7.722657-22.609375-8.773438-49.398437-2.945313-78.535156 21.0625-105.332031 123.890625-208.167969 229.226563-229.234375l115.917969-23.183594-76.367188 45.820313c-84.835938 50.910156-195.253906 161.328125-246.144531 246.144531-8.59375 14.324219-15.160157 27.339844-19.6875 38.988281zm26.242187 38.925781c-1.273437-.132812-2.519531-.085937-3.730468.089844.175781-1.207031.222656-2.453125.089843-3.722656-.558593-5.328125.542969-21.734375 22.8125-58.847656 48.761719-81.269532 154.5625-187.074219 235.851563-235.851563l99.179687-59.507812-59.5 99.175781c-48.777343 81.285156-154.585937 187.089844-235.863281 235.855469-37.109375 22.269531-53.507812 23.375-58.839844 22.808593zm343.0625-203.679687c-21.070312 105.335937-123.90625 208.167969-229.234375 229.230469-29.144531 5.828125-55.941406 4.777344-78.5625-2.949219 11.65625-4.527344 24.671875-11.082031 39.011719-19.6875 41.253906-24.75 89.503906-63.914063 135.867188-110.277344 46.355468-46.359375 85.523437-94.609375 110.28125-135.863281l45.816406-76.367188zm0 0" fill="#c5e1e6"/><path d="m507.601562 4.394531-54.335937 54.339844.003906-.003906-59.503906 99.175781c-48.777344 81.285156-154.582031 187.089844-235.859375 235.855469-37.109375 22.269531-53.507812 23.375-58.839844 22.808593-1.273437-.132812-2.519531-.085937-3.730468.089844l-12.667969 12.667969h.003906c-.027344.199219-.070313.390625-.09375.589844-.867187 8.242187 5.109375 15.621093 13.347656 16.488281.25.027344.511719.035156.765625.058594.28125 5.058594 3.101563 9.855468 7.898438 12.417968 21.082031 11.257813 45.652344 16.957032 72.445312 16.957032 13.410156 0 27.378906-1.425782 41.742188-4.300782 56.515625-11.304687 113.847656-43.734374 161.4375-91.324218s80.023437-104.921875 91.328125-161.441406l40.160156-200.832032c1.023437-5.105468-.679687-10.117187-4.101563-13.546875zm-65.472656 208.496094c-21.070312 105.335937-123.90625 208.167969-229.234375 229.230469-29.144531 5.828125-55.941406 4.777344-78.5625-2.949219 11.65625-4.527344 24.671875-11.082031 39.011719-19.6875 41.253906-24.75 89.503906-63.914063 135.867188-110.277344 46.355468-46.359375 85.523437-94.609375 110.28125-135.863281l45.816406-76.367188zm0 0" fill="#8db9c4"/><path d="m100.59375 426.402344c0-3.839844-1.464844-7.679688-4.394531-10.605469-2.929688-2.929687-6.773438-4.394531-10.613281-4.394531h-70.582032c-8.285156 0-14.99999975 6.714844-14.99999975 15s6.71484375 15 14.99999975 15h34.375l-44.984375 44.988281c-5.859375 5.859375-5.859375 15.355469 0 21.214844 2.929688 2.929687 6.769531 4.390625 10.605469 4.390625 3.839844 0 7.679688-1.464844 10.609375-4.390625l44.984375-44.988281v34.375c0 8.285156 6.714844 15 15 15 8.28125 0 15-6.714844 15-15zm0 0" fill="#00ab5e"/><path d="m4.394531 507.605469c2.929688 2.929687 6.769531 4.390625 10.605469 4.390625 3.839844 0 7.679688-1.464844 10.609375-4.390625l44.984375-44.988281v34.375c0 8.285156 6.714844 15 15 15 8.28125 0 15-6.714844 15-15v-70.589844c0-3.835938-1.464844-7.675782-4.394531-10.605469zm0 0" fill="#00884a"/></svg>